#!OML:ASF H:\Not Pregnant\Project 1\Capture day 1\Session 1\non-pregnant.ASF
:FULLY-SPECIFIED
:DEGREES
1991
root -4.56083 15.1538 36.0206 -569.944 -88.2569 580.052
lowerback 3.69296 1.50121 3.02839
upperback -8.8754 2.06685 -0.185735
thorax -11.4691 0.617356 -2.15034
lowerneck 10.2781 -7.82936 -30.3514
upperneck 0.233444 -16.4184 38.8112
head 4.76326 -9.71327 19.1965
rclavicle -7.4917e-015 -1.88845e-015
rhumerus -41.9159 -16.8263 -62.6592
rradius 23.3288
rwrist 31.6061
rhand -9.64937 3.87901
rfingers 7.12502
rthumb 16.3213 -25.4542
lclavicle -7.4917e-015 -1.88845e-015
lhumerus -47.7051 -5.73064 92.7264
lradius 41.273
lwrist 22.4527
lhand -3.18997 -16.2405
lfingers 7.12502
lthumb 22.5316 12.4648
rfemur -25.449 -2.93681 6.84518
rtibia 38.8005
rfoot -24.6569 1.90668
rtoes -30.2172
lfemur -10.2765 -11.9243 15.0129
ltibia 10.4448
lfoot 14.9884 -3.42996
ltoes -41.872
1992
root -4.58318 15.1288 36.1652 -577.693 -88.249 587.746
lowerback 3.56333 1.46694 3.1567
upperback -8.89792 2.03138 -0.119169
thorax -11.4166 0.592205 -2.14163
lowerneck 10.2988 -7.87431 -30.2267
upperneck 0.27116 -16.4901 38.7717
head 4.77937 -9.74789 19.1323
rclavicle 5.00689e-015 -3.8266e-015
rhumerus -42.2155 -17.7802 -61.5343
rradius 23.2524
rwrist 31.8524
rhand -9.79975 3.55264
rfingers 7.12502
rthumb 16.1765 -25.7924
lclavicle 5.00689e-015 -3.8266e-015
lhumerus -47.854 -6.2917 93.3622
lradius 41.3733
lwrist 21.9117
lhand -2.58577 -15.8829
lfingers 7.12502
lthumb 23.1115 12.7509
rfemur -25.0733 -2.9313 6.45646
rtibia 38.4898
rfoot -24.4171 1.66332
rtoes -30.6707
lfemur -10.1975 -11.2467 14.7113
ltibia 10.7837
lfoot 12.9963 -3.87114
ltoes -43.0692
1993
root -4.60466 15.1075 36.3119 -584.934 -88.2052 594.939
lowerback 3.43498 1.43672 3.28071
upperback -8.91635 2.00097 -0.0496203
thorax -11.3604 0.570266 -2.12811
lowerneck 10.3076 -7.92721 -30.1021
upperneck 0.296502 -16.5666 38.7334
head 4.79662 -9.7837 19.0659
rclavicle -1.93877e-014 -1.37658e-014
rhumerus -42.5029 -18.654 -60.4661
rradius 23.2237
rwrist 32.0218
rhand -9.94233 3.22393
rfingers 7.12502
rthumb 16.0392 -26.1322
lclavicle -1.93877e-014 -1.37658e-014
lhumerus -47.9584 -6.76701 93.916
lradius 41.4172
lwrist 21.3628
lhand -1.82676 -15.6863
lfingers 7.12502
lthumb 23.8395 12.8544
rfemur -24.6623 -2.84083 6.05932
rtibia 38.0943
rfoot -24.1002 1.3561
rtoes -31.1153
lfemur -10.284 -10.2774 14.3163
ltibia 11.4504
lfoot 10.9216 -4.38289
ltoes -43.9648
1994
root -4.62516 15.0894 36.4611 -591.573 -88.132 601.54
lowerback 3.30885 1.40519 3.40468
upperback -8.93277 1.96902 0.0261235
thorax -11.3036 0.547971 -2.1079
lowerneck 10.3052 -7.9847 -29.9821
upperneck 0.308418 -16.6434 38.6969
head 4.81324 -9.81859 18.9997
rclavicle 2.04997e-016 8.29926e-015
rhumerus -42.7739 -19.4332 -59.4667
rradius 23.2488
rwrist 32.1167
rhand -10.0817 2.90875
rfingers 7.12502
rthumb 15.9049 -26.4581
lclavicle 2.04997e-016 8.29926e-015
lhumerus -48.0178 -7.15138 94.389
lradius 41.3817
lwrist 20.7263
lhand -0.98702 -15.6878
lfingers 7.12502
lthumb 24.6446 12.7454
rfemur -24.2209 -2.66977 5.65649
rtibia 37.6201
rfoot -23.7066 0.979933
rtoes -31.5601
lfemur -10.4853 -9.04555 13.8385
ltibia 12.32
lfoot 8.86359 -4.88837
ltoes -44.6822
1995
root -4.64516 15.0737 36.6109 -597.05 -88.032 606.968
lowerback 3.19099 1.38517 3.50285
upperback -8.93527 1.95078 0.101136
thorax -11.2358 0.535373 -2.07608
lowerneck 10.3185 -8.05139 -29.8621
upperneck 0.275079 -16.7278 38.6755
head 4.81988 -9.85973 18.9396
rclavicle 1.99592e-014 1.22253e-014
rhumerus -43.0293 -20.0868 -58.5807
rradius 23.3427
rwrist 32.0566
rhand -10.2207 2.58349
rfingers 7.12502
rthumb 15.7711 -26.794
lclavicle 1.99592e-014 1.22253e-014
lhumerus -48.0278 -7.50168 94.8005
lradius 41.2568
lwrist 20.0297
lhand -0.159395 -15.901
lfingers 7.12502
lthumb 25.4377 12.4216
rfemur -23.7346 -2.39948 5.24748
rtibia 37.0779
rfoot -23.2375 0.539927
rtoes -31.9974
lfemur -10.7058 -7.61243 13.2853
ltibia 13.2648
lfoot 6.86181 -5.31625
ltoes -45.303
1996
root -4.66429 15.061 36.7627 -601.64 -87.9262 611.512
lowerback 3.06864 1.36639 3.58148
upperback -8.92682 1.93236 0.178086
thorax -11.1535 0.52523 -2.03118
lowerneck 10.3401 -8.12042 -29.7468
upperneck 0.197989 -16.8074 38.6678
head 4.81355 -9.9001 18.8878
rclavicle 8.68441e-015 -2.68359e-015
rhumerus -43.2369 -20.5691 -57.8303
rradius 23.4985
rwrist 31.8231
rhand -10.3592 2.25475
rfingers 7.12502
rthumb 15.6378 -27.1332
lclavicle 8.68441e-015 -2.68359e-015
lhumerus -47.9905 -7.8127 95.1705
lradius 41.0501
lwrist 19.3288
lhand 0.545697 -16.2519
lfingers 7.12502
lthumb 26.113 11.9727
rfemur -23.2179 -2.04124 4.81809
rtibia 36.4671
rfoot -22.673 0.0455022
rtoes -32.4336
lfemur -10.9359 -6.08594 12.6689
ltibia 14.2045
lfoot 4.94093 -5.63098
ltoes -45.7817
1997
root -4.68247 15.0517 36.9177 -605.458 -87.8469 615.288
lowerback 2.93942 1.34189 3.6376
upperback -8.9102 1.90254 0.241335
thorax -11.0584 0.51138 -1.98701
lowerneck 10.377 -8.18607 -29.6401
upperneck 0.0837937 -16.8809 38.6853
head 4.79631 -9.94107 18.8536
rclavicle 6.91398e-015 -4.17448e-015
rhumerus -43.4028 -20.8758 -57.2388
rradius 23.7229
rwrist 31.4293
rhand -10.5112 1.92474
rfingers 7.12502
rthumb 15.4913 -27.4746
lclavicle 6.91398e-015 -4.17448e-015
lhumerus -47.9275 -8.12959 95.5294
lradius 40.7938
lwrist 18.7568
lhand 0.99914 -16.6117
lfingers 7.12502
lthumb 26.547 11.548
rfemur -22.6692 -1.62192 4.33271
rtibia 35.7833
rfoot -22.0053 -0.462378
rtoes -32.8725
lfemur -11.1638 -4.59021 11.9782
ltibia 15.0838
lfoot 3.10591 -5.82416
ltoes -46.0889
1998
root -4.6994 15.0462 37.0774 -609.246 -87.7837 619.045
lowerback 2.80388 1.3106 3.71574
upperback -8.89094 1.86341 0.288548
thorax -10.9561 0.490474 -1.9713
lowerneck 10.4449 -8.24385 -29.5311
upperneck -0.073354 -16.9415 38.7232
head 4.75888 -9.98028 18.8342
rclavicle 2.60905e-016 -1.50082e-014
rhumerus -43.5384 -21.0321 -56.7815
rradius 24.0103
rwrist 30.9169
rhand -10.6468 1.62518
rfingers 7.12502
rthumb 15.3607 -27.7842
lclavicle 2.60905e-016 -1.50082e-014
lhumerus -47.8594 -8.50309 95.9217
lradius 40.5108
lwrist 18.4089
lhand 1.09741 -16.8644
lfingers 7.12502
lthumb 26.6411 11.2811
rfemur -22.0867 -1.17734 3.80753
rtibia 35.0154
rfoot -21.2299 -0.951628
rtoes -33.3496
lfemur -11.4046 -3.20896 11.2493
ltibia 15.8914
lfoot 1.34559 -5.93192
ltoes -46.2938
1999
root -4.71494 15.0448 37.2427 -613.089 -87.7554 622.87
lowerback 2.66017 1.26857 3.8097
upperback -8.8727 1.80793 0.309086
thorax -10.8502 0.458932 -1.99122
lowerneck 10.5372 -8.29307 -29.3992
upperneck -0.261717 -16.9854 38.7723
head 4.70058 -10.0146 18.8207
rclavicle 1.12065e-014 3.47873e-015
rhumerus -43.66 -21.0858 -56.4348
rradius 24.3585
rwrist 30.3671
rhand -10.7463 1.3816
rfingers 7.12502
rthumb 15.2649 -28.0351
lclavicle 1.12065e-014 3.47873e-015
lhumerus -47.7989 -8.95113 96.3473
lradius 40.214
lwrist 18.3185
lhand 0.87728 -16.964
lfingers 7.12502
lthumb 26.4304 11.2133
rfemur -21.4709 -0.700513 3.21312
rtibia 34.158
rfoot -20.3427 -1.40673
rtoes -33.837
lfemur -11.668 -2.00405 10.4705
ltibia 16.6279
lfoot -0.341127 -5.95889
ltoes -46.4657
2000
root -4.72927 15.0469 37.4128 -616.809 -87.7761 626.586
lowerback 2.5047 1.21516 3.88944
upperback -8.85453 1.73307 0.308479
thorax -10.7383 0.41826 -2.02369
lowerneck 10.6499 -8.33319 -29.2501
upperneck -0.472837 -17.0103 38.8172
head 4.62185 -10.0413 18.8059
rclavicle 1.39149e-015 8.15017e-015
rhumerus -43.7531 -21.0095 -56.2075
rradius 24.7648
rwrist 29.7541
rhand -10.8188 1.18568
rfingers 7.12502
rthumb 15.1951 -28.2364
lclavicle 1.39149e-015 8.15017e-015
lhumerus -47.7439 -9.44661 96.802
lradius 39.8869
lwrist 18.4461
lhand 0.398049 -16.9408
lfingers 7.12502
lthumb 25.9716 11.3046
rfemur -20.8262 -0.202755 2.53085
rtibia 33.2138
rfoot -19.3587 -1.80118
rtoes -34.3417
lfemur -11.9532 -0.991482 9.62971
ltibia 17.3142
lfoot -1.95472 -5.91165
ltoes -46.6123
2001
root -4.7425 15.0516 37.5864 -620.524 -87.8299 630.3
lowerback 2.35279 1.16379 3.9688
upperback -8.83756 1.65904 0.285316
thorax -10.6297 0.376861 -2.08071
lowerneck 10.7751 -8.36062 -29.1493
upperneck -0.68 -17.0358 38.9078
head 4.55438 -10.074 18.831
rclavicle -7.31776e-015 -4.57205e-015
rhumerus -43.8482 -20.8516 -56.0588
rradius 25.226
rwrist 29.1135
rhand -10.8604 1.05439
rfingers 7.12502
rthumb 15.155 -28.3707
lclavicle -7.31776e-015 -4.57205e-015
lhumerus -47.6846 -9.98728 97.2644
lradius 39.5021
lwrist 18.7485
lhand -0.290911 -16.8512
lfingers 7.12502
lthumb 25.3117 11.4893
rfemur -20.162 0.345376 1.78204
rtibia 32.2144
rfoot -18.2837 -2.1505
rtoes -34.8106
lfemur -12.2411 -0.0962402 8.74678
ltibia 17.935
lfoot -3.4903 -5.86969
ltoes -46.7268
2002
root -4.75425 15.0581 37.7639 -624.508 -87.9213 634.298
lowerback 2.19312 1.10926 4.02142
upperback -8.82189 1.57801 0.262748
thorax -10.5192 0.334367 -2.12155
lowerneck 10.9047 -8.38082 -29.0775
upperneck -0.891995 -17.0495 38.9883
head 4.48183 -10.1003 18.8599
rclavicle 4.77083e-015 -4.27387e-015
rhumerus -43.9245 -20.6102 -55.9556
rradius 25.7368
rwrist 28.4626
rhand -10.862 0.99544
rfingers 7.12502
rthumb 15.1534 -28.4298
lclavicle 4.77083e-015 -4.27387e-015
lhumerus -47.6176 -10.5426 97.7617
lradius 39.0675
lwrist 19.1841
lhand -1.11617 -16.7215
lfingers 7.12502
lthumb 24.5209 11.7285
rfemur -19.5106 0.881414 0.9661
rtibia 31.2
rfoot -17.1442 -2.42759
rtoes -35.2499
lfemur -12.539 0.647939 7.81639
ltibia 18.4906
lfoot -4.93885 -5.7953
ltoes -46.8021
2003
root -4.76352 15.0655 37.9393 -628.695 -88.0392 638.518
lowerback 2.03438 1.05184 3.97374
upperback -8.81303 1.48701 0.260147
thorax -10.4198 0.295956 -2.08439
lowerneck 11.0223 -8.39903 -29.0402
upperneck -1.09027 -17.0625 39.0602
head 4.41772 -10.1244 18.8917
rclavicle 2.42269e-015 3.18055e-015
rhumerus -43.9709 -20.2625 -55.9104
rradius 26.2886
rwrist 27.7469
rhand -10.822 1.0119
rfingers 7.12502
rthumb 15.192 -28.4104
lclavicle 2.42269e-015 3.18055e-015
lhumerus -47.5307 -11.0789 98.2565
lradius 38.5646
lwrist 19.6879
lhand -1.9545 -16.6347
lfingers 7.12502
lthumb 23.717 11.9219
rfemur -18.9081 1.43482 0.123566
rtibia 30.218
rfoot -15.941 -2.67952
rtoes -35.6551
lfemur -12.8408 1.28787 6.8759
ltibia 18.9869
lfoot -6.30239 -5.71708
ltoes -46.854
